<?xml version="1.0" encoding="utf-8" ?><svg xmlns="http://www.w3.org/2000/svg" xmlns:xlink="http://www.w3.org/1999/xlink" width="1024" height="1024" viewBox="0 0 1024 1024"><path fill="#0A0A0A" d="M0 0L1024 0L1024 1024L0 1024L0 0Z"/><path fill="#E8E8E8" d="M508.827 222.223C537.112 220.569 562.335 234.826 581.703 254.315C602.098 274.837 613.856 299.278 626.021 325.043C634.186 342.308 641.785 359.835 648.804 377.597C654.129 391.245 658.91 405.559 664.878 418.919C669.499 429.26 675.03 440.053 680.149 450.181C688.481 466.978 697.261 483.549 706.479 499.875C713.047 511.505 723.058 524.634 731.08 535.598L768.775 586.843C794.993 622.149 825.33 661.473 824.994 707.793C824.723 731.726 814.9 754.559 797.71 771.213C757.223 810.521 705.156 804.954 655.236 792.362C648.532 790.671 641.572 789.169 634.817 787.639C620.168 784.41 605.499 781.278 590.809 778.243C565.717 772.956 541.385 767.852 515.594 767.452C485.04 766.839 457.079 773.135 427.396 779.489L369.509 791.953C349.839 796.255 334.907 800.219 314.771 801.506C223.94 807.309 171.338 729.688 214.344 648.584C225.651 627.26 237.811 610.511 252.188 590.706C276.834 556.758 304.37 524.202 324.793 487.495C338.607 462.328 351.44 434.605 363.006 408.301C367.068 399.063 370.638 388.442 374.491 378.939C383.84 355.903 393.974 333.193 404.877 310.851C426.426 267.647 455.368 224.977 508.827 222.223Z"/><path fill="#0A0A0A" d="M505.262 256.702C535.179 254.435 558.308 267.391 578.251 288.926C599.261 311.612 610.508 337.955 622.545 365.941C630.538 384.503 638.238 403.19 645.641 421.996C654.855 445.122 662.88 466.082 674.973 488.245C697.51 529.215 729.527 563.385 755.351 602.216C773.154 628.986 793.135 661.908 791.327 695.329C790.081 717.475 779.996 738.193 763.335 752.836C755.046 760.225 744.566 765.995 734.193 769.825C696.602 783.705 665.348 773.182 628.982 764.813L584.169 754.806C560.863 749.4 544.982 744.853 521.072 743.503C485.464 742.615 470.118 747.608 435.603 755.509L388.525 766.019C365.601 771.368 345.595 776.75 321.858 776.048C305.084 775.602 288.683 771.002 274.123 762.661C232 738.207 223.239 689.169 242.581 647.128C253.061 624.349 265.674 605.481 280.559 585.331C289.559 573.028 298.68 560.814 307.923 548.692C324.475 526.86 341.316 504.884 353.075 479.945C361.439 462.205 369.046 444 376.41 425.827L398.844 371.692C419.323 322.203 444.903 264.153 505.262 256.702Z"/><path fill="#E8E8E8" d="M502.953 279.698C533.77 275.374 565.046 293.594 584.517 316.18C604.244 339.064 615.401 367.421 626.469 395.085C639.645 428.017 651.662 461.694 668.326 493.046C674.775 505.13 684.894 518.45 693.08 529.396L724.39 571.275C736.614 587.683 748.042 602.369 757.065 620.875C765.187 637.953 772.525 658.949 771.238 678.003C767.038 740.189 709.095 773.804 651.035 761.125C638.425 758.372 625.894 755.321 613.353 752.2C598.878 748.552 584.371 745.036 569.833 741.653C551.297 737.326 540.466 734.54 521.623 733.184C492.453 731.055 469.974 737.897 442.228 744.797C426.958 748.662 411.649 752.373 396.304 755.929C385.359 758.565 374.263 761.605 363.09 762.822C335.687 765.804 307.508 760.468 285.699 742.889C267.378 728.105 255.713 706.621 253.293 683.203C246.209 612.756 325.799 547.937 356.914 490.957C362.144 481.38 366.406 470.7 370.76 460.683C379.718 439.665 388.407 418.534 396.823 397.293C407.624 369.844 417.515 342.667 436.451 319.483C452.629 299.675 476.953 282.343 502.953 279.698Z"/><path fill="#0A0A0A" d="M506.383 302.691C547.147 299.256 579.53 331.366 598.443 364.159C608.073 380.855 612.767 394.719 619.333 412.774L637.426 463.149C641.624 474.584 646.23 488.485 652.223 498.905C681.161 549.22 750.453 603.163 746.915 666.579C745.786 687.975 736.055 708.007 719.933 722.12C704.08 736.213 682.817 743.428 661.67 743.318C645.752 743.235 633.055 739.089 617.996 735.096L578.907 724.671C557.536 718.778 541.268 713.649 518.878 712.352C492.044 709.743 465.726 719.23 440.171 726.463C427.061 730.07 413.919 733.559 400.747 736.931C392.231 739.113 382.36 741.988 373.74 742.865C327.116 747.607 282.884 718.511 277.931 670.141C275.907 650.376 280.455 632.403 289.242 614.764C303.67 585.802 325.514 561.428 345.279 536.097C354.372 524.492 364.552 511.615 371.597 498.685C377.834 487.24 383.066 472.564 387.562 460.235L403.96 415.323C409.952 398.855 413.594 385.883 422.417 370.444C441.44 337.156 465.264 307.101 506.383 302.691Z"/><path fill="#E8E8E8" d="M504.809 326.195C508.371 325.525 517.076 325.781 520.755 326.182C559.736 330.429 587.173 362.334 603.918 395.285C607.142 401.627 610.865 412.48 613.383 419.287L631.776 469.489C637.323 484.221 641.842 497.035 650.605 510.413C663.902 530.714 680.638 547.91 694.589 567.816C706.177 584.35 719.315 600.876 725.644 620.354C742.169 679.287 695.309 734.677 634.645 729.691C621.514 728.614 610.506 725.592 598.122 722.205L563.768 712.731C546.847 707.934 539.548 705.189 521.779 703.101C497.282 701.16 484.479 706.106 461.703 712.574C449.315 716.026 436.892 719.355 424.438 722.562C414.867 725.041 404.055 728.05 394.337 729.284C370.251 732.343 346.656 726.952 327.396 711.861C310.483 698.638 299.522 679.235 296.926 657.925C294.714 639.389 298.323 620.845 305.86 603.822C309.743 595.052 316.262 586.743 321.996 578.962C330.547 567.355 339.326 555.918 348.329 544.658C358.553 531.991 368.775 520.729 376.653 506.292C382.616 495.367 386.953 484.099 391.323 472.476C397.272 456.435 403.115 440.356 408.852 424.239C416.712 402.618 422.084 388.093 436.149 369.32C454.602 344.691 473.817 329.737 504.809 326.195Z"/><path fill="#0A0A0A" d="M504.721 339.198C523.2 337.729 538.177 341.905 553.974 351.612C584.053 370.094 594.734 399.075 605.469 430.703L621.312 478.205C624.017 486.055 627.436 497.498 631.514 504.744C658.104 551.991 718.571 588.792 713.814 649.552C712.414 667.437 700.038 687.563 686.012 698.51C635.158 738.201 575.02 693.462 521.691 686.548C500.11 685.501 487.072 687.626 467.257 695.465C457.837 698.6 447.995 701.322 438.596 704.406C404.231 715.683 370.84 723.64 339.988 699.116C324.22 686.412 314.2 667.92 312.168 647.773C306.624 595.189 350.067 561.595 378.994 524.384C392.632 506.841 396.372 495.415 403.299 474.733C407.873 460.754 412.549 446.809 417.329 432.899C424.854 410.917 431.261 390.209 446.572 371.954C461.729 353.883 481.069 341.544 504.721 339.198Z"/><path fill="#E8E8E8" d="M507.843 361.708C510.897 361.406 514.615 361.515 517.678 361.811C535.161 363.375 551.691 370.47 564.87 382.064C576.011 391.955 586.917 406.345 592.736 420.057C605.241 449.967 612.789 481.245 627.23 510.48C637.831 531.94 652.545 542.248 666.975 559.752C683.765 580.119 698.216 611.095 695.23 637.797C691.156 674.227 658.03 702.455 621.535 701.718C583.756 702.193 553.198 681.726 517.121 677.629C481.912 675.255 448.978 698.236 413.608 701.194C393.069 703.418 372.669 698.946 356.435 685.379C314.321 650.184 326.486 593.538 359.143 556.634C372.269 542.318 387.072 530.048 396.424 512.568C416.507 475.032 420.279 427.716 447.31 393.937C462.648 374.771 483.565 364.107 507.843 361.708Z"/><path fill="#0A0A0A" d="M504.835 369.197C524.008 366.305 547.452 375.57 561.827 388.097C582.241 405.888 588.481 424.785 596.012 449.613L605.551 480.893C607.986 488.818 611.185 499.994 615.076 507.133C621.157 518.292 631.319 533.073 640.275 541.999C649.174 550.87 656.761 557.332 664.693 567.457C680.334 587.422 690.184 610.533 687.059 636.26C685.043 653.589 676.076 669.357 662.213 679.95C655.205 685.345 647.213 689.325 638.684 691.668C596.595 703.621 560.001 672.688 518.618 667.593C496.563 666.416 488.164 670.317 468.191 677.894C433.836 690.928 394.287 705.619 361.678 680.559C347.287 669.499 338.02 653.056 336.012 635.018C333.782 616.522 338.679 600.843 347.406 584.693C363.965 554.062 394.597 539.522 409.308 506.815C424.511 473.016 426.888 430.914 449.426 400.939C462.425 383.651 483.4 371.741 504.835 369.197Z"/><path fill="#E8E8E8" d="M503.988 391.687C509.62 391.103 515.301 391.174 520.916 391.9C534.517 393.787 547.335 399.384 557.963 408.078C592.92 436.558 591.388 476.793 611.133 513.91C622.196 534.706 638.722 546.648 653.105 564.097C666.067 579.822 673.748 603.289 670.837 623.83C668.512 641.098 659.419 656.733 645.56 667.293C620.019 686.454 591.003 682.328 563.019 671.885C549.205 666.73 536.677 661.14 521.984 659.089C491.01 653.656 462.742 675.402 433.284 679.659C414.606 682.358 395.792 679.663 380.437 668.092C365.989 657.227 356.57 640.964 354.336 623.026C352.495 608.986 354.606 594.71 360.432 581.804C368.978 563.085 380.342 554.088 394.127 540.089C399.548 534.584 408.165 523.063 411.907 516.369C428.363 486.927 429.553 450.087 450.665 423.012C464.532 405.228 481.632 394.683 503.988 391.687Z"/><path fill="#0A0A0A" d="M508.162 395.705C510.827 395.46 514.809 395.619 517.455 395.851C530.206 396.962 542.386 401.647 552.594 409.369C587.431 435.382 588.24 480.868 606.475 516.731C616.215 535.57 632.605 548.354 646.687 563.629C672.324 591.44 676.311 637.56 645.042 663.136C637.43 669.246 628.437 673.4 618.85 675.234C580.207 682.883 553.547 655.665 518.623 652.047C502.856 650.74 492.45 653.169 477.957 659.317C462.172 666.012 445.361 673.257 428.256 675.334C392.839 679.632 361.09 656.051 357.668 619.826C356.41 606.682 358.765 593.444 364.48 581.54C377.481 555.013 404.317 542.999 417.705 517.144C433.158 487.301 434.286 449.759 456.595 423.104C470.524 406.461 486.518 397.62 508.162 395.705Z"/><path fill="#E8E8E8" d="M507.123 417.209C510.876 416.884 515.813 416.998 519.543 417.382C531.274 418.619 542.449 423.02 551.873 430.116C582.466 453.122 584.202 490.591 601.213 521.897C612.013 541.771 631.655 551.846 642.87 571.129C650.182 583.702 653.732 596.325 652.091 610.942C650.441 626.666 642.567 641.075 630.226 650.957C608.886 667.785 582.563 665.878 558.676 656.26C541.93 649.516 536.041 644.747 517.777 642.598C484.612 641.26 471.43 659.455 439.587 662.783C422.651 664.554 406.373 660.294 393.124 649.43C380.9 639.218 373.225 624.573 371.784 608.71C370.746 597.13 372.567 586.76 377.646 576.313C388.507 553.97 409.533 545.283 421.771 523.289C435.957 497.793 439.642 465.005 458.434 442.356C471.05 427.151 487.383 418.791 507.123 417.209Z"/><path fill="#0A0A0A" d="M505.347 419.683C510.084 419.228 514.855 419.269 519.583 419.806C533.063 421.436 543.184 425.874 553.454 434.467C581.566 457.988 581.696 494.82 598.675 524.738C608.339 541.766 624.265 550.39 635.969 565.388C646.455 578.824 651.954 594.364 649.724 611.569C647.828 626.862 639.87 640.754 627.635 650.123C607.244 665.445 581.542 662.225 559.473 652.826C544.195 646.319 536.874 641.008 520.125 638.545C508.538 638.052 497.228 638.212 486.374 642.878C471.151 649.422 458.349 656.924 441.742 659.733C408.505 665.355 378.951 644.179 374.085 610.702C372.365 599.524 374.137 588.087 379.161 577.953C390.407 554.969 413.517 545.326 424.357 525.083C446.849 483.08 445.458 427.728 505.347 419.683Z"/><path fill="#0A0A0A" d="M578.471 651.109C556.553 647.615 542.355 634.334 520.849 630.96C501.996 628.003 487.502 634.182 471.079 642.363C455.406 650.17 437.084 654.452 420.012 649.369C392.234 641.311 374.407 612.783 382.655 584.43C389.785 559.917 411.377 551.065 426.36 532.701C432.783 524.828 436.913 513.053 440.463 503.519C448.989 477.23 459.521 449.303 485.842 436.051C499.573 429.137 515.841 428.442 530.229 433.374C548.642 439.685 557.962 450.066 567.49 466.092C578.032 486.29 582.636 507.805 594.082 527.226C604.086 544.201 623.567 552.714 633.503 569.808C638.482 577.88 637.979 579.181 641.309 586.511C647.347 615.658 628.502 644.668 599.113 650.913C595.046 651.778 582.312 652.675 578.471 651.109Z"/><path fill="#928C8B" d="M578.471 651.109C556.553 647.615 542.355 634.334 520.849 630.96C501.996 628.003 487.502 634.182 471.079 642.363C455.406 650.17 437.084 654.452 420.012 649.369C392.234 641.311 374.407 612.783 382.655 584.43C389.785 559.917 411.377 551.065 426.36 532.701C432.783 524.828 436.913 513.053 440.463 503.519C448.989 477.23 459.521 449.303 485.842 436.051C499.573 429.137 515.841 428.442 530.229 433.374C548.642 439.685 557.962 450.066 567.49 466.092L567.015 466.981C562.235 458.96 557.632 451.328 550.242 445.56C528.97 428.957 503.156 426.97 480.058 441.076C446.835 460.875 448.842 502.567 429.909 531.92C421.866 544.39 406.22 552.334 396.267 563.134C393.622 566.005 391.465 568.679 389.321 571.929C369.457 602.052 388.281 639.201 421.514 648.866C456.605 659.071 476.729 628.983 509.606 627.512C538.279 625.922 554.938 647.304 577.476 649.972L578.471 651.109Z"/><path fill="#E8E8E8" d="M567.49 466.092C578.032 486.29 582.636 507.805 594.082 527.226C604.086 544.201 623.567 552.714 633.503 569.808C638.482 577.88 637.979 579.181 641.309 586.511L640.383 587.749C640.283 585.08 639.088 582.112 638.028 579.68C631.242 563.746 617.24 554.429 604.743 543.404C582.169 523.488 579.76 492.561 567.015 466.981L567.49 466.092Z"/><path fill="#3C3030" d="M641.309 586.511C647.347 615.658 628.502 644.668 599.113 650.913C595.046 651.778 582.312 652.675 578.471 651.109L577.476 649.972C583.595 650.639 589.296 651.133 595.412 650.128C609.926 647.732 622.898 639.68 631.487 627.737C639.898 615.807 642.872 602.176 640.383 587.749L641.309 586.511Z"/><path fill="#E8E8E8" d="M506.874 439.202C511.002 438.832 515.156 438.856 519.279 439.276C527.916 440.241 536.219 443.162 543.557 447.818C572.089 465.97 572.444 502.662 588.327 529.688C596.994 544.436 611.132 551.108 621.257 563.872C629.788 574.488 633.757 588.056 632.289 601.595C630.751 614.934 623.898 627.09 613.282 635.311C602.716 643.45 589.773 645.997 576.681 644.706C554.412 642.51 540.657 627.032 518.123 624.1C488.34 621.256 474.395 641.375 447.56 644.875C406.981 650.168 377.67 607.853 397.395 571.658C408.023 552.156 425.321 547.829 435.867 529.76C448.359 508.357 449.711 480.382 465.705 460.755C476.459 447.557 490.033 440.891 506.874 439.202Z"/><path fill="#0A0A0A" d="M508.52 440.211C510.856 440.016 513.649 440.059 515.994 440.181C525.253 440.636 534.245 443.439 542.122 448.327C570.848 466.253 571.27 503.251 586.506 530.216C594.394 543.696 607.686 551.508 618.202 562.778C637.304 583.249 635.34 614.01 614.609 632.527C600.005 645.571 576.938 646.584 559.526 638.925C543.16 631.726 533.258 623.411 514.624 622.116C486.525 620.921 472.771 640.454 446.968 643.63C434.709 645.139 420.488 642.01 410.924 633.929C400.106 624.789 393.557 614.248 392.2 600.014C391.479 592.716 392.531 585.352 395.267 578.549C405.111 553.755 426.602 550.647 438.488 528.482C449.848 507.3 451.408 479.908 466.992 461.179C478.216 447.692 491.284 441.759 508.52 440.211Z"/><path fill="#0A0A0A" d="M552.843 473.755C569.565 492.539 570.189 512.676 581.865 532.549C594.047 551.86 616.038 559.131 619.257 584.371C621.98 605.721 606.877 625.738 585.974 630.243C583.334 630.313 576.478 633.08 574.576 632.938C551.872 631.232 533.296 613.62 510.146 614.529C488.862 615.364 475.55 629.462 455.229 631.832C443.319 633.222 428.01 628.56 418.992 620.822C404.209 607.524 400.292 587.679 409.751 570.179C418.329 554.308 433.081 548.257 442.23 533.205C453.599 514.5 454.444 493.133 468.932 475.88C478.402 464.514 492.014 457.394 506.751 456.098C519.523 455.002 534.714 458.008 544.656 466.468C547.48 468.253 550.532 471.319 552.843 473.755Z"/><path fill="#928C8B" d="M552.843 473.755C569.565 492.539 570.189 512.676 581.865 532.549C594.047 551.86 616.038 559.131 619.257 584.371C621.98 605.721 606.877 625.738 585.974 630.243C583.334 630.313 576.478 633.08 574.576 632.938C551.872 631.232 533.296 613.62 510.146 614.529C488.862 615.364 475.55 629.462 455.229 631.832C443.319 633.222 428.01 628.56 418.992 620.822C404.209 607.524 400.292 587.679 409.751 570.179C418.329 554.308 433.081 548.257 442.23 533.205C453.599 514.5 454.444 493.133 468.932 475.88C478.402 464.514 492.014 457.394 506.751 456.098C519.523 455.002 534.714 458.008 544.656 466.468L545.877 468.597C520.006 449.523 487.387 453.419 467.669 479.427C455.616 495.324 454.38 514.71 444.722 531.714C431.891 554.929 400.56 563.413 405.906 595.931C407.785 606.913 414.035 616.664 423.228 622.958C432.757 629.603 444.027 631.785 455.389 629.646C460.009 628.748 464.522 627.372 468.857 625.54C469.847 624.998 470.115 624.962 471.219 624.633C497.561 609.228 516.742 604.185 544.412 620.011C562.048 630.098 584.235 636.324 601.711 622.175C623.005 604.934 623.616 582.148 607.289 561.093C606.98 560.854 606.993 560.875 606.779 560.552C599.545 552.94 588.367 544.979 582.889 536.531C569.421 515.759 568.998 494.812 552.408 475.005L552.843 473.755Z"/><path fill="#7E7D7F" d="M471.219 624.633C471.271 624.747 471.474 625.042 471.376 625.216C471.189 625.55 470.512 625.654 470.166 625.787C470.055 625.83 469.946 625.88 469.834 625.922C469.635 625.997 469.219 626.129 469.026 626.061C468.889 626.014 468.875 625.63 468.857 625.54C469.847 624.998 470.115 624.962 471.219 624.633Z"/><path fill="#0A0A0A" d="M463.667 628.757C464.129 628.607 464.418 628.463 464.673 628.503L464.662 628.545C464.335 628.742 464.194 628.751 463.801 628.861C463.494 628.867 462.848 628.962 462.547 628.739L462.605 628.688C463.046 628.624 463.124 628.683 463.667 628.757Z"/><path fill="#0A0A0A" d="M460.945 629.444C461.267 629.312 461.157 629.329 461.317 629.33C461.427 629.421 461.364 629.344 461.48 629.644C461.122 629.636 461.208 629.674 460.945 629.444Z"/><path fill="#474846" d="M544.559 622.419C544.883 622.275 544.77 622.295 544.937 622.292C545.068 622.387 544.991 622.305 545.15 622.627C544.788 622.585 544.797 622.622 544.559 622.419Z"/><path fill="#9B9997" d="M544.656 466.468C547.48 468.253 550.532 471.319 552.843 473.755L552.408 475.005C550.318 472.632 548.124 470.762 545.877 468.597L544.656 466.468Z"/><path fill="#FF4500" d="M509.072 534.231C515.304 533.497 520.979 537.88 521.844 544.095C522.709 550.31 518.447 556.077 512.252 557.073C508.126 557.736 503.965 556.116 501.373 552.838C498.782 549.56 498.166 545.137 499.764 541.276C501.361 537.415 504.922 534.72 509.072 534.231Z"/><path fill="#0A0A0A" d="M527.989 606.232C494.362 596.618 484.489 618.025 453.95 619.329C447.597 619.6 438.116 616.338 432.85 612.765C432.236 612.349 427.025 606.933 426.021 605.9L426.243 605.565C427.2 606.169 428.035 606.654 428.739 607.531C431.269 610.68 435.73 613.646 439.526 615.282C461.398 624.708 477.019 610.826 496.06 603.276C504.953 599.75 518.815 599.374 527.572 603.621C527.899 604.823 532.378 605.009 529.837 605.873C529.25 606.073 529.67 605.46 527.989 606.232Z"/><path fill="#3C3030" d="M541.288 479.318C543.503 480.141 545.419 481.923 547.24 483.437C563.711 497.132 567.409 522.621 578.357 538.795C584.844 548.379 594.262 552.32 602.344 565.201C600.221 564.347 595.576 557.054 593.501 555.321C580.073 544.107 571.897 536.182 566.793 518.603C561.877 501.669 554.715 491.081 541.288 479.318Z"/><path fill="#3C3030" d="M471.066 489.996C471.293 490.965 465.011 500.36 463.975 502.343C457.733 514.299 455.797 527.016 448.057 538.172C438.833 551.468 427.318 554.964 420.293 570.114C419.939 562.213 444.375 543.855 449.505 534.008C455.38 522.73 462.562 497.383 471.066 489.996Z"/><path fill="#3C3030" d="M527.572 603.621C528.975 603.761 528.945 603.931 530.298 604.348C542.79 608.2 553.299 616.799 566.487 618.541C566.989 618.608 567.767 618.762 568.087 619.173C565.825 622.229 535.191 608.606 530.825 607.206C529.87 606.91 528.925 606.585 527.989 606.232C529.67 605.46 529.25 606.073 529.837 605.873C532.378 605.009 527.899 604.823 527.572 603.621Z"/><path fill="#0A0A0A" d="M603.532 569.263C604.819 568.853 604.606 569.433 604.864 570.8C603.667 571.133 603.787 570.439 603.532 569.263Z"/><path fill="#0A0A0A" d="M534.476 475.45C534.886 475.344 534.855 475.459 535.252 475.634C534.816 475.712 534.741 475.774 534.476 475.45Z"/></svg>